<svg width="347" height="124" viewBox="0 0 347 124" fill="none" xmlns="http://www.w3.org/2000/svg">
<rect x="2.5" y="20.5" width="332" height="76" fill="#974A94" stroke="black" stroke-width="5"/>
<rect x="12" y="2" width="333" height="77" fill="white" stroke="black" stroke-width="4"/>
<path d="M51.1389 47L55.6889 24.25H70.8789L69.9689 28.94H60.3089L59.5389 32.93H67.5889L66.6789 37.62H58.6289L57.6489 42.31H67.5889L66.6789 47H51.1389ZM71.3552 47L74.7852 29.5H79.3002L79.1952 32.3H79.3352C79.8719 31.7633 80.5019 31.25 81.2252 30.76C81.9485 30.27 82.6952 29.8733 83.4652 29.57C84.2585 29.2433 85.0285 29.08 85.7752 29.08C87.2219 29.08 88.3419 29.465 89.1352 30.235C89.9285 30.9817 90.3252 32.1133 90.3252 33.63C90.3252 34.0033 90.3019 34.4117 90.2552 34.855C90.2085 35.2983 90.1385 35.73 90.0452 36.15L87.8752 47H82.2752L84.3052 36.85C84.3752 36.5233 84.4335 36.2317 84.4802 35.975C84.5269 35.7183 84.5502 35.485 84.5502 35.275C84.5502 34.785 84.4219 34.4233 84.1652 34.19C83.9319 33.9567 83.5819 33.84 83.1152 33.84C82.5319 33.84 81.8669 34.0733 81.1202 34.54C80.3735 34.9833 79.6619 35.66 78.9852 36.57L76.9552 47H71.3552ZM102.912 47.42C100.742 47.42 99.1665 46.93 98.1865 45.95C97.2299 44.97 96.7515 43.6633 96.7515 42.03C96.7515 41.68 96.7749 41.33 96.8215 40.98C96.8682 40.63 96.9382 40.21 97.0315 39.72L98.2215 33.84H93.8115L94.6515 29.71L99.3415 29.5L101.232 24.25H105.782L104.662 29.5H111.662L110.822 33.84H103.752L102.562 39.44C102.492 39.7433 102.445 39.9883 102.422 40.175C102.422 40.3383 102.422 40.5133 102.422 40.7C102.422 41.4933 102.632 42.0533 103.052 42.38C103.472 42.7067 104.008 42.87 104.662 42.87C105.338 42.87 105.992 42.7417 106.622 42.485C107.252 42.205 107.812 41.9133 108.302 41.61L109.982 45.495C109.188 46.0317 108.162 46.4867 106.902 46.86C105.642 47.2333 104.312 47.42 102.912 47.42ZM122.358 47.42C120.865 47.42 119.523 47.1517 118.333 46.615C117.143 46.055 116.198 45.2033 115.498 44.06C114.798 42.8933 114.448 41.4 114.448 39.58C114.448 37.9933 114.716 36.5583 115.253 35.275C115.813 33.9917 116.571 32.895 117.528 31.985C118.485 31.0517 119.57 30.34 120.783 29.85C122.02 29.3367 123.315 29.08 124.668 29.08C126.978 29.08 128.763 29.7217 130.023 31.005C131.306 32.265 131.948 33.9333 131.948 36.01C131.948 36.78 131.866 37.5383 131.703 38.285C131.563 39.0083 131.435 39.5333 131.318 39.86H118.613L119.208 36.36H128.098L126.628 37.165C126.675 36.9783 126.721 36.78 126.768 36.57C126.815 36.3367 126.838 36.115 126.838 35.905C126.838 35.0417 126.628 34.4 126.208 33.98C125.788 33.56 125.228 33.35 124.528 33.35C124.085 33.35 123.595 33.4667 123.058 33.7C122.545 33.9333 122.055 34.295 121.588 34.785C121.145 35.2517 120.771 35.87 120.468 36.64C120.188 37.3867 120.048 38.2967 120.048 39.37C120.048 40.3733 120.211 41.155 120.538 41.715C120.888 42.2517 121.343 42.625 121.903 42.835C122.463 43.045 123.058 43.15 123.688 43.15C124.645 43.15 125.508 42.9983 126.278 42.695C127.071 42.3683 127.865 41.96 128.658 41.47L130.478 45.18C129.405 45.9033 128.18 46.4633 126.803 46.86C125.426 47.2333 123.945 47.42 122.358 47.42ZM136.274 47L139.704 29.465L144.254 29.5L143.834 34.05H143.974C144.581 33 145.269 32.1017 146.039 31.355C146.809 30.6083 147.614 30.0483 148.454 29.675C149.294 29.2783 150.134 29.08 150.974 29.08C151.744 29.08 152.433 29.15 153.039 29.29C153.646 29.4067 154.101 29.57 154.404 29.78L152.444 34.61C152.071 34.4233 151.663 34.2833 151.219 34.19C150.799 34.0967 150.344 34.05 149.854 34.05C148.781 34.05 147.661 34.5633 146.494 35.59C145.351 36.5933 144.301 37.9933 143.344 39.79L141.874 47H136.274ZM177.827 47L182.377 24.25H187.977L184.337 42.31H194.137L193.227 47H177.827ZM205.953 47.42C204.32 47.42 202.908 47.105 201.718 46.475C200.551 45.8217 199.641 44.9117 198.988 43.745C198.358 42.555 198.043 41.1667 198.043 39.58C198.043 37.9933 198.323 36.5583 198.883 35.275C199.443 33.9683 200.201 32.86 201.158 31.95C202.138 31.0167 203.235 30.305 204.448 29.815C205.685 29.325 206.956 29.08 208.263 29.08C209.896 29.08 211.296 29.4067 212.463 30.06C213.653 30.69 214.563 31.6 215.193 32.79C215.846 33.9567 216.173 35.3333 216.173 36.92C216.173 38.5067 215.893 39.9533 215.333 41.26C214.773 42.5433 214.003 43.6517 213.023 44.585C212.066 45.495 210.97 46.195 209.733 46.685C208.52 47.175 207.26 47.42 205.953 47.42ZM206.373 42.87C206.91 42.87 207.423 42.73 207.913 42.45C208.403 42.17 208.835 41.785 209.208 41.295C209.605 40.7817 209.92 40.1633 210.153 39.44C210.386 38.7167 210.503 37.9233 210.503 37.06C210.503 35.94 210.258 35.0883 209.768 34.505C209.301 33.9217 208.66 33.63 207.843 33.63C207.33 33.63 206.816 33.77 206.303 34.05C205.813 34.33 205.37 34.7267 204.973 35.24C204.6 35.73 204.296 36.3367 204.063 37.06C203.83 37.76 203.713 38.5533 203.713 39.44C203.713 40.56 203.958 41.4117 204.448 41.995C204.938 42.5783 205.58 42.87 206.373 42.87ZM228.269 47.42C227.336 47.42 226.449 47.2217 225.609 46.825C224.769 46.4283 224.139 45.9033 223.719 45.25H223.649L222.879 47H218.259L223.159 22.64H228.759L227.709 27.75L226.659 31.46H226.729C227.476 30.69 228.316 30.1067 229.249 29.71C230.183 29.29 231.069 29.08 231.909 29.08C233.729 29.08 235.129 29.675 236.109 30.865C237.089 32.0317 237.579 33.7 237.579 35.87C237.579 37.48 237.323 38.985 236.809 40.385C236.296 41.785 235.596 43.01 234.709 44.06C233.846 45.11 232.854 45.9383 231.734 46.545C230.638 47.1283 229.483 47.42 228.269 47.42ZM227.429 42.87C227.989 42.87 228.526 42.7183 229.039 42.415C229.553 42.1117 230.008 41.68 230.404 41.12C230.824 40.56 231.151 39.895 231.384 39.125C231.641 38.355 231.769 37.5033 231.769 36.57C231.769 35.52 231.571 34.7733 231.174 34.33C230.778 33.8633 230.276 33.63 229.669 33.63C229.109 33.63 228.514 33.8283 227.884 34.225C227.254 34.6217 226.636 35.31 226.029 36.29L224.979 41.54C225.236 41.9833 225.586 42.3217 226.029 42.555C226.473 42.765 226.939 42.87 227.429 42.87ZM249.256 47.42C248.322 47.42 247.436 47.2217 246.596 46.825C245.756 46.4283 245.126 45.9033 244.706 45.25H244.636L243.866 47H239.246L244.146 22.64H249.746L248.696 27.75L247.646 31.46H247.716C248.462 30.69 249.302 30.1067 250.236 29.71C251.169 29.29 252.056 29.08 252.896 29.08C254.716 29.08 256.116 29.675 257.096 30.865C258.076 32.0317 258.566 33.7 258.566 35.87C258.566 37.48 258.309 38.985 257.796 40.385C257.282 41.785 256.582 43.01 255.696 44.06C254.832 45.11 253.841 45.9383 252.721 46.545C251.624 47.1283 250.469 47.42 249.256 47.42ZM248.416 42.87C248.976 42.87 249.512 42.7183 250.026 42.415C250.539 42.1117 250.994 41.68 251.391 41.12C251.811 40.56 252.137 39.895 252.371 39.125C252.627 38.355 252.756 37.5033 252.756 36.57C252.756 35.52 252.557 34.7733 252.161 34.33C251.764 33.8633 251.262 33.63 250.656 33.63C250.096 33.63 249.501 33.8283 248.871 34.225C248.241 34.6217 247.622 35.31 247.016 36.29L245.966 41.54C246.222 41.9833 246.572 42.3217 247.016 42.555C247.459 42.765 247.926 42.87 248.416 42.87ZM261.632 53.58C260.979 53.58 260.337 53.4867 259.707 53.3C259.054 53.1133 258.552 52.9033 258.202 52.67L259.742 48.89C260.022 49.03 260.372 49.1583 260.792 49.275C261.235 49.3917 261.632 49.45 261.982 49.45C262.565 49.45 263.079 49.38 263.522 49.24C263.965 49.1 264.35 48.89 264.677 48.61C265.027 48.3533 265.319 48.0267 265.552 47.63L266.007 46.86L262.192 29.5H267.582L268.702 36.29C268.842 37.1533 268.97 38.1217 269.087 39.195C269.227 40.245 269.332 41.1433 269.402 41.89H269.542C269.869 41.1433 270.277 40.245 270.767 39.195C271.28 38.1217 271.759 37.1533 272.202 36.29L275.702 29.5H281.372L271.432 47C270.569 48.5167 269.647 49.7533 268.667 50.71C267.71 51.69 266.649 52.4133 265.482 52.88C264.339 53.3467 263.055 53.58 261.632 53.58ZM303.815 47L311.025 24.25H314.14L307 47H303.815ZM310.675 47L317.605 24.25H320.755L313.86 47H310.675ZM305.32 33.105L306.16 29.92H321.875L321 33.105H305.32ZM303.325 40.595L304.165 37.41H319.88L319.04 40.595H303.325Z" fill="#974A94"/>
</svg>
